<?xml version="1.0" standalone="no"?>
<!DOCTYPE svg PUBLIC "-//W3C//DTD SVG 20010904//EN"
 "http://www.w3.org/TR/2001/REC-SVG-20010904/DTD/svg10.dtd">
<svg version="1.0" xmlns="http://www.w3.org/2000/svg"
 width="1024.000000pt" height="1024.000000pt" viewBox="0 0 1024.000000 1024.000000"
 preserveAspectRatio="xMidYMid meet">

<g transform="translate(0.000000,1024.000000) scale(0.100000,-0.100000)"
fill="#000000" stroke="none">
<path d="M0 5120 l0 -5120 5120 0 5120 0 0 5120 0 5120 -5120 0 -5120 0 0
-5120z m6520 3369 c236 -31 404 -152 472 -340 l23 -64 0 -743 c0 -694 1 -742
17 -742 34 0 38 -34 38 -305 0 -271 -4 -305 -38 -305 -16 0 -17 23 -18 288 -1
273 -17 556 -24 422 -1 -30 -5 -45 -7 -32 -4 21 -27 30 -36 15 -2 -5 -2 -3 -1
4 2 7 -1 15 -6 18 -6 4 -10 -4 -10 -17 0 -18 -2 -20 -10 -8 -6 10 -10 -4 -13
-45 -2 -33 -4 206 -6 530 -2 599 -7 859 -16 928 -12 88 -107 207 -204 257
-100 50 -77 50 -1536 50 -814 -1 -1390 -4 -1435 -10 -146 -19 -272 -108 -332
-236 l-31 -66 -7 -1262 c-3 -693 -7 -1206 -8 -1138 -1 67 -6 122 -10 122 -5 0
-7 -13 -6 -30 2 -32 -5 -37 -24 -18 -10 10 -15 10 -21 -1 -7 -10 -11 -8 -17
10 -6 16 -11 -40 -14 -161 -6 -179 -6 -176 -8 98 -2 269 -3 282 -21 282 -10 0
-22 7 -25 16 -3 9 -6 144 -6 300 l0 284 25 12 25 11 2 756 3 756 32 67 c73
154 220 256 422 292 100 19 2695 23 2831 5z m-761 -214 c-8 -8 -959 -13 -1104
-5 -88 4 91 7 484 8 343 1 622 0 620 -3z m-1976 -12 c-7 -2 -21 -2 -30 0 -10
3 -4 5 12 5 17 0 24 -2 18 -5z m1232 -138 c-23 -8 -124 -11 -119 -3 3 4 33 8
67 7 34 0 58 -2 52 -4z m218 -2 c-29 -2 -77 -2 -105 0 -29 2 -6 3 52 3 58 0
81 -1 53 -3z m-2453 -167 c0 -15 -27 -38 -135 -116 -33 -24 -54 -36 -46 -27 7
9 12 17 10 18 -41 8 -54 7 -65 -2 -8 -6 -14 -9 -14 -5 0 8 143 113 178 132 35
18 72 18 72 0z m4784 -20 c38 -23 56 -59 36 -71 -6 -4 -8 -12 -4 -18 3 -7 -4
-1 -15 12 -12 13 -21 20 -21 16 0 -8 -71 43 -82 59 -24 34 31 35 86 2z m101
-72 c22 -19 28 -28 14 -20 -14 9 -29 13 -33 9 -4 -5 -6 -3 -4 4 2 6 -6 19 -17
27 -11 8 -15 15 -10 16 6 0 28 -16 50 -36z m70 -54 c10 -11 16 -20 13 -20 -3
0 -13 9 -23 20 -10 11 -16 20 -13 20 3 0 13 -9 23 -20z m50 -40 c10 -11 16
-20 13 -20 -3 0 -13 9 -23 20 -10 11 -16 20 -13 20 3 0 13 -9 23 -20z m55 -45
c13 -14 21 -25 18 -25 -2 0 -15 11 -28 25 -13 14 -21 25 -18 25 2 0 15 -11 28
-25z m81 -72 c13 -16 12 -17 -3 -4 -10 7 -18 15 -18 17 0 8 8 3 21 -13z m-463
-292 c220 -175 459 -444 607 -681 104 -167 242 -448 259 -526 7 -29 3 -35 -45
-73 -29 -23 -55 -38 -59 -34 -4 4 -17 37 -29 73 -40 116 -187 402 -269 525
-151 225 -342 438 -543 605 -129 108 -134 118 -98 164 35 45 66 36 177 -53z
m-4506 52 c21 -19 24 -62 6 -84 -7 -8 -38 -34 -68 -56 -271 -204 -556 -550
-722 -878 -67 -131 -138 -298 -138 -322 0 -19 -5 -17 -61 25 -60 44 -60 40 1
194 122 307 329 607 606 879 241 235 324 289 376 242z m4486 -788 c32 -23 176
-243 234 -359 63 -125 138 -322 169 -443 23 -91 23 -92 4 -114 -11 -12 -33
-30 -49 -40 l-29 -18 -53 157 c-93 281 -183 461 -341 681 -29 41 -53 80 -53
88 0 22 47 63 72 63 13 0 33 -7 46 -15z m-4560 -11 c37 -26 27 -59 -52 -178
-95 -141 -163 -270 -219 -416 -42 -109 -88 -256 -102 -327 -4 -18 -10 -33 -14
-33 -4 0 -28 13 -54 30 -53 33 -55 41 -31 134 62 243 158 464 289 659 98 147
129 169 183 131z m3869 -327 c-2 -23 -3 -1 -3 48 0 50 1 68 3 42 2 -26 2 -67
0 -90z m-2406 -103 c382 -229 622 -376 642 -392 13 -12 17 -31 17 -86 0 -39
-4 -76 -8 -82 -4 -7 -79 -54 -167 -106 -88 -52 -266 -158 -395 -235 -344 -204
-317 -191 -339 -167 -11 10 -36 49 -56 86 l-36 66 23 25 c13 13 124 84 248
157 124 73 263 156 310 183 47 28 93 56 103 62 15 10 -5 25 -150 112 -296 177
-508 306 -525 321 -26 22 -22 42 18 114 40 70 53 88 64 88 4 0 117 -66 251
-146z m2406 -311 c-1 -59 -3 -13 -3 102 0 116 2 164 3 108 2 -56 2 -151 0
-210z m-3229 -58 c0 -71 -4 -143 -8 -160 -4 -16 -7 76 -7 205 0 159 3 211 7
160 4 -41 7 -133 8 -205z m3389 183 c-2 -18 -4 -4 -4 32 0 36 2 50 4 33 2 -18
2 -48 0 -65z m100 -105 c-2 -16 -4 -5 -4 22 0 28 2 40 4 28 2 -13 2 -35 0 -50z
m-100 -50 c-2 -16 -4 -3 -4 27 0 30 2 43 4 28 2 -16 2 -40 0 -55z m-4735 -185
c238 -177 324 -247 326 -264 3 -18 -8 -30 -50 -57 -29 -19 -145 -101 -258
-181 -113 -80 -235 -167 -272 -193 -37 -27 -68 -54 -68 -60 0 -18 -15 -16 -30
2 -11 13 -8 37 18 139 17 67 34 129 37 137 4 12 -17 13 -131 11 -139 -4 -184
1 -184 18 0 6 68 10 176 10 l176 0 -6 -22 c-20 -73 -56 -241 -53 -245 7 -6
207 148 207 159 0 5 -69 78 -152 162 -84 85 -173 179 -198 209 -41 50 -49 56
-85 56 -99 2 -176 14 -171 27 3 7 0 15 -7 18 -7 2 86 5 207 5 l218 1 -6 23
c-3 12 -18 75 -32 139 -21 95 -24 121 -14 133 7 8 16 15 21 15 5 0 154 -109
331 -242z m6246 230 c18 -18 15 -52 -14 -163 -14 -55 -28 -109 -31 -120 -4
-20 0 -20 267 -17 270 3 271 3 258 -18 -10 -16 -23 -20 -64 -20 -28 0 -99 -3
-158 -7 l-107 -6 -42 -42 c-23 -23 -51 -52 -61 -66 -11 -13 -42 -49 -69 -79
-27 -30 -58 -73 -69 -95 -23 -46 -56 -85 -72 -85 -17 -1 -66 -47 -66 -62 0
-19 196 -176 206 -165 2 1 -3 25 -10 52 -7 28 -21 84 -31 125 -10 41 -20 81
-22 88 -4 9 36 12 183 11 104 -1 181 -3 172 -6 -10 -2 -18 -9 -18 -14 0 -6
-59 -9 -156 -7 -134 3 -154 1 -151 -12 58 -208 69 -261 57 -275 -15 -18 -30
-19 -30 -2 0 7 -57 53 -126 102 -70 50 -177 126 -238 169 -61 44 -147 105
-191 136 -125 88 -139 68 235 350 173 131 320 239 326 239 5 1 15 -4 22 -11z
m-5181 -490 c-3 -8 -6 -5 -6 6 -1 11 2 17 5 13 3 -3 4 -12 1 -19z m2953 -197
l0 -109 -102 -6 c-146 -9 -925 -3 -935 7 -10 11 -17 159 -9 192 l6 25 520 0
520 0 0 -109z m-3651 -265 c60 -242 159 -461 313 -691 84 -126 97 -156 80
-181 -12 -19 -52 -35 -71 -29 -23 7 -137 157 -215 281 -103 165 -207 426 -248
624 -11 57 -11 61 11 84 27 29 83 58 92 48 3 -4 20 -65 38 -136z m5280 98 c21
-15 23 -23 18 -63 -6 -47 -87 -305 -106 -338 -9 -16 -10 -14 -7 7 3 25 -25 92
-49 117 -11 10 -15 10 -19 0 -3 -6 -3 -2 0 11 68 275 71 282 119 282 11 0 31
-7 44 -16z m-5805 -343 c150 -454 439 -873 834 -1209 119 -101 123 -106 120
-140 -4 -43 -39 -69 -79 -59 -36 9 -201 149 -342 290 -304 304 -511 630 -652
1029 -16 45 -25 87 -21 100 6 25 96 93 106 80 4 -4 19 -45 34 -91z m5261 59
c11 -18 -22 -108 -241 -663 -52 -131 -94 -240 -94 -242 0 -3 133 -5 295 -5
282 0 296 -1 315 -20 37 -37 34 -42 -165 -261 -77 -85 -187 -208 -245 -273
-58 -65 -166 -187 -240 -270 -75 -83 -205 -232 -290 -331 -179 -209 -392 -444
-421 -464 -27 -19 -35 -7 -22 37 11 38 140 354 193 472 16 36 57 130 91 210
34 80 92 215 130 301 38 86 69 162 69 168 0 9 -73 10 -292 6 -163 -4 -306 -2
-323 3 -23 6 -30 14 -30 35 0 20 28 55 120 149 66 68 169 175 229 238 61 63
270 279 466 480 197 201 372 382 390 403 32 37 53 46 65 27z m1094 -66 c10 -9
-100 -286 -166 -419 -38 -76 -134 -227 -141 -221 -2 3 1 14 8 25 7 14 7 21 0
21 -5 0 -10 10 -10 23 0 22 -31 57 -50 57 -18 0 -11 17 68 177 43 87 98 213
121 280 l43 122 62 -31 c33 -17 63 -32 65 -34z m-1348 -91 c-28 -39 -614 -621
-610 -606 6 18 609 633 620 633 6 0 1 -12 -10 -27z m169 -217 c-10 -44 -31
-86 -43 -86 -5 0 -4 7 3 15 6 8 9 23 6 33 -8 25 23 100 34 83 4 -7 4 -27 0
-45z m507 -246 c76 -100 132 -211 169 -335 43 -146 45 -391 4 -536 -10 -34
-12 -36 -47 -32 -21 2 -39 5 -41 7 -2 2 4 44 14 92 22 121 15 327 -16 434 -43
147 -124 291 -233 414 l-44 50 25 27 24 28 41 -32 c22 -18 69 -70 104 -117z
m-1734 -24 c13 4 5 -14 -26 -63 -141 -217 -196 -437 -169 -670 7 -60 15 -120
18 -135 6 -24 3 -27 -24 -26 -16 1 -34 -2 -40 -6 -14 -8 -39 104 -47 214 -9
104 8 255 41 367 26 91 94 233 143 300 30 41 31 42 58 28 16 -8 36 -12 46 -9z
m1304 -212 c-3 -3 -12 -4 -19 -1 -8 3 -5 6 6 6 11 1 17 -2 13 -5z m126 -11
c-13 -2 -35 -2 -50 0 -16 2 -5 4 22 4 28 0 40 -2 28 -4z m-1045 -500 c-43 -2
-113 -2 -155 0 -43 1 -8 3 77 3 85 0 120 -2 78 -3z m704 -290 c-38 -43 -80
-87 -93 -98 -26 -21 24 37 106 123 75 79 67 62 -13 -25z m-3426 -736 l59 -22
990 -5 c545 -3 982 -6 973 -8 -17 -2 -17 -3 0 -23 41 -50 48 -56 62 -61 44
-15 -204 -19 -1055 -16 -933 4 -941 4 -1018 26 -97 27 -178 70 -237 125 -25
23 -41 39 -36 35 15 -12 41 -10 71 6 15 8 35 12 44 8 14 -5 14 -4 1 13 -8 10
8 2 36 -18 29 -21 78 -47 110 -60z"/>
<path d="M3321 7094 c0 -11 3 -14 6 -6 3 7 2 16 -1 19 -3 4 -6 -2 -5 -13z"/>
<path d="M6992 7000 c0 -19 2 -27 5 -17 2 9 2 25 0 35 -3 9 -5 1 -5 -18z"/>
<path d="M3316 6775 c-3 -8 -1 -15 4 -15 6 0 10 7 10 15 0 8 -2 15 -4 15 -2 0
-6 -7 -10 -15z"/>
<path d="M3319 6738 c0 -7 -1 -66 -2 -130 0 -65 -4 -118 -9 -118 -4 0 -8 15
-9 33 0 17 -3 26 -6 18 -5 -11 -7 -11 -14 0 -6 10 -9 5 -10 -16 -1 -23 -4 -17
-14 25 -14 59 -14 61 -17 -390 -1 -234 6 -304 28 -269 5 8 3 9 -6 4 -10 -6
-12 -4 -7 9 4 10 7 20 7 23 0 4 9 -2 21 -13 11 -10 19 -14 17 -9 -2 6 2 11 7
13 6 1 10 -9 11 -23 1 -14 4 -28 8 -32 3 -3 6 195 6 440 0 246 -2 447 -5 447
-3 0 -5 -6 -6 -12z m-43 -387 c-4 -5 0 -12 6 -14 7 -3 2 -6 -11 -6 -20 -1 -21
1 -11 14 14 16 25 21 16 6z"/>
<path d="M3240 6683 c1 -46 1 -47 17 -28 10 13 14 15 10 4 -3 -9 -1 -22 4 -30
6 -10 9 -8 10 11 0 14 3 19 6 12 2 -6 9 -10 14 -7 5 4 -2 16 -16 29 -14 13
-25 31 -25 40 0 9 -4 16 -10 16 -5 0 -10 -21 -10 -47z"/>
<path d="M3286 6602 c-2 -4 -1 -14 3 -21 6 -9 11 -10 15 -2 4 6 2 11 -4 11 -6
0 -8 5 -5 10 3 6 4 10 1 10 -3 0 -7 -4 -10 -8z"/>
<path d="M3316 5835 c-3 -8 -1 -15 4 -15 6 0 10 7 10 15 0 8 -2 15 -4 15 -2 0
-6 -7 -10 -15z"/>
</g>
</svg>
